<?xml version="1.0" encoding="UTF-8" standalone="no"?>
<!DOCTYPE svg PUBLIC "-//W3C//DTD SVG 1.1//EN"
 "http://www.w3.org/Graphics/SVG/1.1/DTD/svg11.dtd">
<!-- Generated by graphviz version 2.38.0 (20140413.2041)
 -->
<!-- Title: %3 Pages: 1 -->
<svg width="690pt" height="67pt"
 viewBox="0.00 0.00 690.00 67.00" xmlns="http://www.w3.org/2000/svg" xmlns:xlink="http://www.w3.org/1999/xlink">
<g id="graph0" class="graph" transform="scale(1 1) rotate(0) translate(4 63)">
<title>%3</title>
<polygon fill="white" stroke="none" points="-4,4 -4,-63 686,-63 686,4 -4,4"/>
<text text-anchor="middle" x="341" y="-43.8" font-family="Times,serif" font-size="14.00">CPython Code Representations</text>
<!-- Raw Source (Bytes) -->
<g id="node1" class="node"><title>Raw Source (Bytes)</title>
<polygon fill="none" stroke="black" points="126,-36 0,-36 0,-0 126,-0 126,-36"/>
<text text-anchor="middle" x="63" y="-14.3" font-family="Times,serif" font-size="14.00">Raw Source (Bytes)</text>
</g>
<!-- Source Text (Unicode) -->
<g id="node2" class="node"><title>Source Text (Unicode)</title>
<polygon fill="none" stroke="black" points="303,-36 162,-36 162,-0 303,-0 303,-36"/>
<text text-anchor="middle" x="232.5" y="-14.3" font-family="Times,serif" font-size="14.00">Source Text (Unicode)</text>
</g>
<!-- Raw Source (Bytes)&#45;&gt;Source Text (Unicode) -->
<g id="edge1" class="edge"><title>Raw Source (Bytes)&#45;&gt;Source Text (Unicode)</title>
<path fill="none" stroke="black" d="M126.371,-18C134.57,-18 143.063,-18 151.505,-18"/>
<polygon fill="black" stroke="black" points="151.754,-21.5001 161.754,-18 151.754,-14.5001 151.754,-21.5001"/>
</g>
<!-- Abstract Syntax Tree -->
<g id="node3" class="node"><title>Abstract Syntax Tree</title>
<polygon fill="none" stroke="black" points="471,-36 339,-36 339,-0 471,-0 471,-36"/>
<text text-anchor="middle" x="405" y="-14.3" font-family="Times,serif" font-size="14.00">Abstract Syntax Tree</text>
</g>
<!-- Source Text (Unicode)&#45;&gt;Abstract Syntax Tree -->
<g id="edge2" class="edge"><title>Source Text (Unicode)&#45;&gt;Abstract Syntax Tree</title>
<path fill="none" stroke="black" d="M303.341,-18C311.71,-18 320.283,-18 328.725,-18"/>
<polygon fill="black" stroke="black" points="328.933,-21.5001 338.933,-18 328.933,-14.5001 328.933,-21.5001"/>
</g>
<!-- Bytecode -->
<g id="node4" class="node"><title>Bytecode</title>
<polygon fill="none" stroke="black" points="575,-36 507,-36 507,-0 575,-0 575,-36"/>
<text text-anchor="middle" x="541" y="-14.3" font-family="Times,serif" font-size="14.00">Bytecode</text>
</g>
<!-- Abstract Syntax Tree&#45;&gt;Bytecode -->
<g id="edge3" class="edge"><title>Abstract Syntax Tree&#45;&gt;Bytecode</title>
<path fill="none" stroke="black" d="M471.037,-18C479.758,-18 488.523,-18 496.741,-18"/>
<polygon fill="black" stroke="black" points="496.813,-21.5001 506.813,-18 496.813,-14.5001 496.813,-21.5001"/>
</g>
<!-- Execution -->
<g id="node5" class="node"><title>Execution</title>
<polygon fill="none" stroke="black" points="682,-36 611,-36 611,-0 682,-0 682,-36"/>
<text text-anchor="middle" x="646.5" y="-14.3" font-family="Times,serif" font-size="14.00">Execution</text>
</g>
<!-- Bytecode&#45;&gt;Execution -->
<g id="edge4" class="edge"><title>Bytecode&#45;&gt;Execution</title>
<path fill="none" stroke="black" d="M575.033,-18C583.282,-18 592.264,-18 600.969,-18"/>
<polygon fill="black" stroke="black" points="600.999,-21.5001 610.999,-18 600.999,-14.5001 600.999,-21.5001"/>
</g>
</g>
</svg>
