<?xml version="1.0" encoding="UTF-8" standalone="no"?>
<!DOCTYPE svg PUBLIC "-//W3C//DTD SVG 1.1//EN"
 "http://www.w3.org/Graphics/SVG/1.1/DTD/svg11.dtd">
<!-- Generated by graphviz version 2.38.0 (20140413.2041)
 -->
<!-- Title: %3 Pages: 1 -->
<svg width="827pt" height="78pt"
 viewBox="0.00 0.00 827.00 78.00" xmlns="http://www.w3.org/2000/svg" xmlns:xlink="http://www.w3.org/1999/xlink">
<g id="graph0" class="graph" transform="scale(1 1) rotate(0) translate(4 74)">
<title>%3</title>
<polygon fill="white" stroke="none" points="-4,4 -4,-74 823,-74 823,4 -4,4"/>
<!-- Module Name -->
<g id="node1" class="node"><title>Module Name</title>
<polygon fill="none" stroke="black" points="96,-36 0,-36 0,-0 96,-0 96,-36"/>
<text text-anchor="middle" x="48" y="-14.3" font-family="Times,serif" font-size="14.00">Module Name</text>
</g>
<!-- Raw Source (Bytes) -->
<g id="node2" class="node"><title>Raw Source (Bytes)</title>
<polygon fill="none" stroke="black" points="259,-67 133,-67 133,-31 259,-31 259,-67"/>
<text text-anchor="middle" x="196" y="-45.3" font-family="Times,serif" font-size="14.00">Raw Source (Bytes)</text>
</g>
<!-- Module Name&#45;&gt;Raw Source (Bytes) -->
<g id="edge1" class="edge"><title>Module Name&#45;&gt;Raw Source (Bytes)</title>
<path fill="none" stroke="black" d="M96.402,-28.0648C104.963,-29.8825 114.061,-31.8143 123.136,-33.7412"/>
<polygon fill="black" stroke="black" points="122.438,-37.171 132.947,-35.8244 123.892,-30.3237 122.438,-37.171"/>
</g>
<!-- Bytecode -->
<g id="node3" class="node"><title>Bytecode</title>
<polygon fill="none" stroke="black" points="711,-37 643,-37 643,-1 711,-1 711,-37"/>
<text text-anchor="middle" x="677" y="-15.3" font-family="Times,serif" font-size="14.00">Bytecode</text>
</g>
<!-- Module Name&#45;&gt;Bytecode -->
<g id="edge2" class="edge"><title>Module Name&#45;&gt;Bytecode</title>
<path fill="none" stroke="red" d="M96.1801,-9.6992C124.695,-5.38385 161.826,-1 195,-1 195,-1 195,-1 541,-1 571.894,-1 606.418,-5.68871 632.819,-10.2801"/>
<polygon fill="red" stroke="red" points="632.414,-13.7634 642.876,-12.0922 633.656,-6.87433 632.414,-13.7634"/>
<text text-anchor="middle" x="366.5" y="-4.8" font-family="Times,serif" font-size="14.00">Import Hook</text>
</g>
<!-- Source Text (Unicode) -->
<g id="node4" class="node"><title>Source Text (Unicode)</title>
<polygon fill="none" stroke="black" points="437,-70 296,-70 296,-34 437,-34 437,-70"/>
<text text-anchor="middle" x="366.5" y="-48.3" font-family="Times,serif" font-size="14.00">Source Text (Unicode)</text>
</g>
<!-- Raw Source (Bytes)&#45;&gt;Source Text (Unicode) -->
<g id="edge3" class="edge"><title>Raw Source (Bytes)&#45;&gt;Source Text (Unicode)</title>
<path fill="none" stroke="black" d="M259.264,-50.1086C267.915,-50.2626 276.898,-50.4225 285.813,-50.5812"/>
<polygon fill="black" stroke="black" points="285.766,-54.0809 295.827,-50.7595 285.891,-47.082 285.766,-54.0809"/>
</g>
<!-- Execution -->
<g id="node6" class="node"><title>Execution</title>
<polygon fill="none" stroke="black" points="819,-37 748,-37 748,-1 819,-1 819,-37"/>
<text text-anchor="middle" x="783.5" y="-15.3" font-family="Times,serif" font-size="14.00">Execution</text>
</g>
<!-- Bytecode&#45;&gt;Execution -->
<g id="edge6" class="edge"><title>Bytecode&#45;&gt;Execution</title>
<path fill="none" stroke="black" d="M711.064,-19C719.488,-19 728.684,-19 737.59,-19"/>
<polygon fill="black" stroke="black" points="737.848,-22.5001 747.848,-19 737.848,-15.5001 737.848,-22.5001"/>
</g>
<!-- Abstract Syntax Tree -->
<g id="node5" class="node"><title>Abstract Syntax Tree</title>
<polygon fill="none" stroke="black" points="606,-66 474,-66 474,-30 606,-30 606,-66"/>
<text text-anchor="middle" x="540" y="-44.3" font-family="Times,serif" font-size="14.00">Abstract Syntax Tree</text>
</g>
<!-- Source Text (Unicode)&#45;&gt;Abstract Syntax Tree -->
<g id="edge4" class="edge"><title>Source Text (Unicode)&#45;&gt;Abstract Syntax Tree</title>
<path fill="none" stroke="black" d="M437.256,-50.373C445.921,-50.1709 454.812,-49.9636 463.557,-49.7596"/>
<polygon fill="black" stroke="black" points="463.82,-53.2545 473.735,-49.5222 463.656,-46.2564 463.82,-53.2545"/>
</g>
<!-- Abstract Syntax Tree&#45;&gt;Bytecode -->
<g id="edge5" class="edge"><title>Abstract Syntax Tree&#45;&gt;Bytecode</title>
<path fill="none" stroke="black" d="M606.127,-34.0097C615.139,-32.0738 624.208,-30.1258 632.689,-28.3039"/>
<polygon fill="black" stroke="black" points="633.658,-31.6757 642.7,-26.1534 632.188,-24.8318 633.658,-31.6757"/>
</g>
</g>
</svg>
